<mxfile host="app.diagrams.net" modified="2022-11-25T03:31:16.607Z" agent="5.0 (Windows NT 6.1; WOW64) AppleWebKit/537.36 (KHTML, like Gecko) Chrome/105.0.0.0 Safari/537.36" etag="u7WeKxp9fjKqXDunl1vj" version="20.3.7" type="github">
  <diagram id="9OVEFG12r8_4CM3pHdND" name="第 1 页">
    <mxGraphModel dx="1108" dy="450" grid="1" gridSize="10" guides="1" tooltips="1" connect="1" arrows="1" fold="1" page="1" pageScale="1" pageWidth="827" pageHeight="1169" math="0" shadow="0">
      <root>
        <mxCell id="0" />
        <mxCell id="1" parent="0" />
        <mxCell id="RWPmiCWd8zR-_-1y1_kb-1" value="" style="shape=mxgraph.flowchart.annotation_1;" vertex="1" parent="1">
          <mxGeometry x="90" y="660" width="380" height="100" as="geometry" />
        </mxCell>
        <mxCell id="RWPmiCWd8zR-_-1y1_kb-2" value="1" style="shape=mxgraph.flowchart.process;" vertex="1" parent="1">
          <mxGeometry x="120" y="292.5" width="100" height="60" as="geometry" />
        </mxCell>
        <mxCell id="RWPmiCWd8zR-_-1y1_kb-3" value="2" style="shape=mxgraph.flowchart.process;" vertex="1" parent="1">
          <mxGeometry x="220" y="292.5" width="100" height="60" as="geometry" />
        </mxCell>
        <mxCell id="RWPmiCWd8zR-_-1y1_kb-4" value="3" style="shape=mxgraph.flowchart.process;" vertex="1" parent="1">
          <mxGeometry x="320" y="292.5" width="100" height="60" as="geometry" />
        </mxCell>
        <mxCell id="RWPmiCWd8zR-_-1y1_kb-5" value="" style="direction=north;shape=mxgraph.arrow.arrow_up;" vertex="1" parent="1">
          <mxGeometry x="120" y="362.5" width="20" height="100" as="geometry" />
        </mxCell>
        <mxCell id="RWPmiCWd8zR-_-1y1_kb-6" value="v.begin()" style="text;html=1;align=center;verticalAlign=middle;resizable=0;points=[];autosize=1;" vertex="1" parent="1">
          <mxGeometry x="100" y="479.5" width="60" height="20" as="geometry" />
        </mxCell>
        <mxCell id="RWPmiCWd8zR-_-1y1_kb-7" value="" style="direction=north;shape=mxgraph.arrow.arrow_up;" vertex="1" parent="1">
          <mxGeometry x="440" y="358.5" width="20" height="100" as="geometry" />
        </mxCell>
        <mxCell id="RWPmiCWd8zR-_-1y1_kb-8" value="v.end()" style="text;html=1;align=center;verticalAlign=middle;resizable=0;points=[];autosize=1;" vertex="1" parent="1">
          <mxGeometry x="420" y="479.5" width="50" height="20" as="geometry" />
        </mxCell>
        <mxCell id="RWPmiCWd8zR-_-1y1_kb-9" value="1" style="shape=mxgraph.flowchart.process;fillColor=#99CCFF;" vertex="1" parent="1">
          <mxGeometry x="120" y="680" width="100" height="60" as="geometry" />
        </mxCell>
        <mxCell id="RWPmiCWd8zR-_-1y1_kb-10" value="2" style="shape=mxgraph.flowchart.process;fillColor=#99CCFF;" vertex="1" parent="1">
          <mxGeometry x="220" y="680" width="100" height="60" as="geometry" />
        </mxCell>
        <mxCell id="RWPmiCWd8zR-_-1y1_kb-11" value="3" style="shape=mxgraph.flowchart.process;fillColor=#99CCFF;" vertex="1" parent="1">
          <mxGeometry x="320" y="680" width="100" height="60" as="geometry" />
        </mxCell>
        <mxCell id="RWPmiCWd8zR-_-1y1_kb-12" value="" style="direction=north;shape=mxgraph.arrow.arrow_up;" vertex="1" parent="1">
          <mxGeometry x="120" y="750" width="20" height="100" as="geometry" />
        </mxCell>
        <mxCell id="RWPmiCWd8zR-_-1y1_kb-13" value="v.begin()" style="text;html=1;align=center;verticalAlign=middle;resizable=0;points=[];autosize=1;" vertex="1" parent="1">
          <mxGeometry x="100" y="867" width="60" height="20" as="geometry" />
        </mxCell>
        <mxCell id="RWPmiCWd8zR-_-1y1_kb-14" value="" style="direction=north;shape=mxgraph.arrow.arrow_up;" vertex="1" parent="1">
          <mxGeometry x="440" y="746" width="20" height="100" as="geometry" />
        </mxCell>
        <mxCell id="RWPmiCWd8zR-_-1y1_kb-15" value="v.end()" style="text;html=1;align=center;verticalAlign=middle;resizable=0;points=[];autosize=1;" vertex="1" parent="1">
          <mxGeometry x="420" y="867" width="50" height="20" as="geometry" />
        </mxCell>
        <mxCell id="RWPmiCWd8zR-_-1y1_kb-16" value="" style="direction=north;shape=mxgraph.arrow.arrow_up;" vertex="1" parent="1">
          <mxGeometry x="60" y="750" width="20" height="100" as="geometry" />
        </mxCell>
        <mxCell id="RWPmiCWd8zR-_-1y1_kb-17" value="v.rend()" style="text;html=1;align=center;verticalAlign=middle;resizable=0;points=[];autosize=1;" vertex="1" parent="1">
          <mxGeometry x="40" y="867" width="60" height="20" as="geometry" />
        </mxCell>
        <mxCell id="RWPmiCWd8zR-_-1y1_kb-18" value="" style="direction=north;shape=mxgraph.arrow.arrow_up;" vertex="1" parent="1">
          <mxGeometry x="328" y="749.5" width="20" height="100" as="geometry" />
        </mxCell>
        <mxCell id="RWPmiCWd8zR-_-1y1_kb-19" value="v.rbegin()" style="text;html=1;align=center;verticalAlign=middle;resizable=0;points=[];autosize=1;" vertex="1" parent="1">
          <mxGeometry x="308" y="866.5" width="70" height="20" as="geometry" />
        </mxCell>
        <mxCell id="RWPmiCWd8zR-_-1y1_kb-20" value="" style="flipH=1;shape=mxgraph.arrow.arrow_left;" vertex="1" parent="1">
          <mxGeometry x="460" y="675" width="100" height="25" as="geometry" />
        </mxCell>
        <mxCell id="RWPmiCWd8zR-_-1y1_kb-21" value="push_back()" style="text;html=1;align=center;verticalAlign=middle;resizable=0;points=[];autosize=1;" vertex="1" parent="1">
          <mxGeometry x="580" y="676" width="80" height="20" as="geometry" />
        </mxCell>
        <mxCell id="RWPmiCWd8zR-_-1y1_kb-22" value="pop_back()" style="text;html=1;align=center;verticalAlign=middle;resizable=0;points=[];autosize=1;" vertex="1" parent="1">
          <mxGeometry x="577" y="718" width="80" height="20" as="geometry" />
        </mxCell>
        <mxCell id="RWPmiCWd8zR-_-1y1_kb-23" value="" style="shape=mxgraph.arrow.arrow_right;" vertex="1" parent="1">
          <mxGeometry x="460" y="720" width="100" height="21" as="geometry" />
        </mxCell>
        <mxCell id="RWPmiCWd8zR-_-1y1_kb-24" value="&lt;font style=&quot;font-size: 21px&quot;&gt;&lt;b&gt;vector容器&lt;/b&gt;&lt;/font&gt;" style="text;html=1;align=center;verticalAlign=middle;resizable=0;points=[];autosize=1;" vertex="1" parent="1">
          <mxGeometry x="80" y="584" width="120" height="20" as="geometry" />
        </mxCell>
        <mxCell id="RWPmiCWd8zR-_-1y1_kb-25" value="font()" style="text;html=1;align=center;verticalAlign=middle;resizable=0;points=[];autosize=1;" vertex="1" parent="1">
          <mxGeometry x="97" y="632" width="40" height="20" as="geometry" />
        </mxCell>
        <mxCell id="RWPmiCWd8zR-_-1y1_kb-26" value="back()" style="text;html=1;align=center;verticalAlign=middle;resizable=0;points=[];autosize=1;" vertex="1" parent="1">
          <mxGeometry x="353" y="632" width="50" height="20" as="geometry" />
        </mxCell>
        <mxCell id="RWPmiCWd8zR-_-1y1_kb-27" value="&lt;font style=&quot;font-size: 21px&quot;&gt;&lt;b&gt;vector容器&lt;/b&gt;&lt;/font&gt;" style="text;html=1;align=center;verticalAlign=middle;resizable=0;points=[];autosize=1;" vertex="1" parent="1">
          <mxGeometry x="110" y="230" width="120" height="20" as="geometry" />
        </mxCell>
      </root>
    </mxGraphModel>
  </diagram>
</mxfile>
